<svg width="128" height="15" viewBox="0 0 128 15" fill="none" xmlns="http://www.w3.org/2000/svg">
<path d="M11.6307 7.45455C11.6307 8.83523 11.3814 10.0284 10.8828 11.0341C10.3842 12.0398 9.70028 12.8153 8.83097 13.3608C7.96165 13.9062 6.96875 14.179 5.85227 14.179C4.7358 14.179 3.7429 13.9062 2.87358 13.3608C2.00426 12.8153 1.32031 12.0398 0.821733 11.0341C0.323153 10.0284 0.0738637 8.83523 0.0738637 7.45455C0.0738637 6.07386 0.323153 4.88068 0.821733 3.875C1.32031 2.86932 2.00426 2.09375 2.87358 1.5483C3.7429 1.00284 4.7358 0.730113 5.85227 0.730113C6.96875 0.730113 7.96165 1.00284 8.83097 1.5483C9.70028 2.09375 10.3842 2.86932 10.8828 3.875C11.3814 4.88068 11.6307 6.07386 11.6307 7.45455ZM10.0966 7.45455C10.0966 6.32102 9.90696 5.36435 9.5277 4.58452C9.1527 3.80469 8.64347 3.21449 8 2.81392C7.3608 2.41335 6.64489 2.21307 5.85227 2.21307C5.05966 2.21307 4.34162 2.41335 3.69815 2.81392C3.05895 3.21449 2.54972 3.80469 2.17045 4.58452C1.79545 5.36435 1.60795 6.32102 1.60795 7.45455C1.60795 8.58807 1.79545 9.54474 2.17045 10.3246C2.54972 11.1044 3.05895 11.6946 3.69815 12.0952C4.34162 12.4957 5.05966 12.696 5.85227 12.696C6.64489 12.696 7.3608 12.4957 8 12.0952C8.64347 11.6946 9.1527 11.1044 9.5277 10.3246C9.90696 9.54474 10.0966 8.58807 10.0966 7.45455ZM14.6316 14V4.18182H16.089V5.71591H16.2168C16.4214 5.19176 16.7516 4.7848 17.2076 4.49503C17.6636 4.20099 18.2112 4.05398 18.8504 4.05398C19.4981 4.05398 20.0372 4.20099 20.4676 4.49503C20.9022 4.7848 21.241 5.19176 21.4839 5.71591H21.5862C21.8376 5.20881 22.2147 4.80611 22.7176 4.50781C23.2204 4.20526 23.8234 4.05398 24.5265 4.05398C25.4043 4.05398 26.1224 4.32884 26.6806 4.87855C27.2389 5.42401 27.518 6.27415 27.518 7.42898V14H26.0095V7.42898C26.0095 6.70455 25.8113 6.18679 25.415 5.87571C25.0187 5.56463 24.5521 5.40909 24.0151 5.40909C23.3248 5.40909 22.79 5.6179 22.4107 6.03551C22.0315 6.44886 21.8418 6.97301 21.8418 7.60795V14H20.3078V7.27557C20.3078 6.71733 20.1266 6.26776 19.7644 5.92685C19.4022 5.58168 18.9356 5.40909 18.3646 5.40909C17.9725 5.40909 17.6061 5.51349 17.2651 5.7223C16.9285 5.93111 16.6558 6.22088 16.447 6.59162C16.2424 6.9581 16.1401 7.3821 16.1401 7.86364V14H14.6316Z" fill="white"/>
<path d="M38.2084 0.909091V14H36.6232V0.909091H38.2084ZM43.2308 8.09375V14H41.7223V4.18182H43.1797V5.71591H43.3075C43.5377 5.21733 43.8871 4.81676 44.3558 4.5142C44.8246 4.20739 45.4297 4.05398 46.1712 4.05398C46.836 4.05398 47.4176 4.19034 47.9162 4.46307C48.4148 4.73153 48.8026 5.14062 49.0796 5.69034C49.3566 6.2358 49.495 6.92614 49.495 7.76136V14H47.9865V7.86364C47.9865 7.09233 47.7862 6.49148 47.3857 6.06108C46.9851 5.62642 46.4354 5.40909 45.7365 5.40909C45.255 5.40909 44.8246 5.51349 44.4453 5.7223C44.0703 5.93111 43.7742 6.2358 43.5568 6.63636C43.3395 7.03693 43.2308 7.52273 43.2308 8.09375ZM56.499 14.2045C55.6808 14.2045 54.9585 13.9979 54.3321 13.5845C53.7057 13.1669 53.2156 12.5788 52.8619 11.8203C52.5082 11.0575 52.3314 10.1562 52.3314 9.11648C52.3314 8.08523 52.5082 7.19034 52.8619 6.43182C53.2156 5.6733 53.7078 5.08736 54.3385 4.67401C54.9692 4.26065 55.6979 4.05398 56.5246 4.05398C57.1638 4.05398 57.6688 4.16051 58.0395 4.37358C58.4145 4.58239 58.7 4.82102 58.896 5.08949C59.0963 5.35369 59.2518 5.57102 59.3626 5.74148H59.4905V0.909091H60.999V14H59.5416V12.4915H59.3626C59.2518 12.6705 59.0942 12.8963 58.8896 13.169C58.6851 13.4375 58.3932 13.6783 58.0139 13.8913C57.6347 14.1001 57.1297 14.2045 56.499 14.2045ZM56.7036 12.8494C57.3087 12.8494 57.82 12.6918 58.2376 12.3764C58.6553 12.0568 58.9727 11.6158 59.1901 11.0533C59.4074 10.4865 59.5161 9.83239 59.5161 9.09091C59.5161 8.35795 59.4095 7.71662 59.1965 7.1669C58.9834 6.61293 58.668 6.18253 58.2504 5.87571C57.8328 5.56463 57.3172 5.40909 56.7036 5.40909C56.0643 5.40909 55.5317 5.57315 55.1055 5.90128C54.6837 6.22514 54.3662 6.66619 54.1531 7.22443C53.9443 7.77841 53.8399 8.40057 53.8399 9.09091C53.8399 9.78977 53.9464 10.4247 54.1595 10.9957C54.3768 11.5625 54.6964 12.0142 55.1183 12.3509C55.5445 12.6832 56.0729 12.8494 56.7036 12.8494ZM70.6988 9.9858V4.18182H72.2073V14H70.6988V12.3381H70.5965C70.3664 12.8366 70.0085 13.2607 69.5227 13.6101C69.0369 13.9553 68.4232 14.1278 67.6818 14.1278C67.0681 14.1278 66.5227 13.9936 66.0454 13.7251C65.5681 13.4524 65.1931 13.0433 64.9204 12.4979C64.6477 11.9482 64.5113 11.2557 64.5113 10.4205V4.18182H66.0198V10.3182C66.0198 11.0341 66.2201 11.6051 66.6207 12.0312C67.0255 12.4574 67.5411 12.6705 68.1676 12.6705C68.5426 12.6705 68.9239 12.5746 69.3117 12.3828C69.7038 12.1911 70.0319 11.897 70.2961 11.5007C70.5646 11.1044 70.6988 10.5994 70.6988 9.9858ZM82.4648 6.38068L81.1097 6.7642C81.0245 6.53835 80.8988 6.31889 80.7326 6.10582C80.5707 5.88849 80.3491 5.70952 80.0678 5.56889C79.7866 5.42827 79.4265 5.35795 78.9876 5.35795C78.3867 5.35795 77.886 5.49645 77.4854 5.77344C77.0891 6.04616 76.891 6.39347 76.891 6.81534C76.891 7.19034 77.0273 7.48651 77.3001 7.70384C77.5728 7.92116 77.9989 8.10227 78.5785 8.24716L80.0359 8.60511C80.9137 8.81818 81.5678 9.14418 81.9982 9.5831C82.4286 10.0178 82.6438 10.5781 82.6438 11.2642C82.6438 11.8267 82.4819 12.3295 82.158 12.7727C81.8384 13.2159 81.391 13.5653 80.8157 13.821C80.2404 14.0767 79.5714 14.2045 78.8086 14.2045C77.8072 14.2045 76.9783 13.9872 76.3221 13.5526C75.6658 13.1179 75.2503 12.483 75.0756 11.6477L76.5074 11.2898C76.6438 11.8182 76.9016 12.2145 77.2809 12.4787C77.6644 12.7429 78.1651 12.875 78.783 12.875C79.4861 12.875 80.0444 12.7259 80.4577 12.4276C80.8753 12.125 81.0842 11.7628 81.0842 11.3409C81.0842 11 80.9648 10.7145 80.7262 10.4844C80.4876 10.25 80.1211 10.0753 79.6268 9.96023L77.9904 9.5767C77.0913 9.36364 76.4307 9.03338 76.0089 8.58594C75.5913 8.13423 75.3824 7.5696 75.3824 6.89205C75.3824 6.33807 75.538 5.84801 75.8491 5.42188C76.1644 4.99574 76.5927 4.66122 77.1339 4.41832C77.6793 4.17543 78.2972 4.05398 78.9876 4.05398C79.9592 4.05398 80.7219 4.26705 81.2759 4.69318C81.8342 5.11932 82.2305 5.68182 82.4648 6.38068ZM89.7245 4.18182V5.46023H84.6364V4.18182H89.7245ZM86.1194 1.82955H87.6279V11.1875C87.6279 11.6136 87.6897 11.9332 87.8133 12.1463C87.9411 12.3551 88.103 12.4957 88.299 12.5682C88.4993 12.6364 88.7103 12.6705 88.9319 12.6705C89.0981 12.6705 89.2344 12.6619 89.341 12.6449C89.4475 12.6236 89.5327 12.6065 89.5966 12.5938L89.9035 13.9489C89.8012 13.9872 89.6584 14.0256 89.4752 14.0639C89.2919 14.1065 89.0597 14.1278 88.7785 14.1278C88.3523 14.1278 87.9347 14.0362 87.5256 13.853C87.1208 13.6697 86.7841 13.3906 86.5157 13.0156C86.2515 12.6406 86.1194 12.1676 86.1194 11.5966V1.82955ZM92.5337 14V4.18182H93.991V5.66477H94.0933C94.2723 5.17898 94.5962 4.7848 95.0649 4.48224C95.5337 4.17969 96.0621 4.02841 96.6501 4.02841C96.7609 4.02841 96.8994 4.03054 97.0656 4.0348C97.2318 4.03906 97.3575 4.04545 97.4427 4.05398V5.58807C97.3916 5.57528 97.2744 5.55611 97.0912 5.53054C96.9122 5.50071 96.7226 5.4858 96.5223 5.4858C96.045 5.4858 95.6189 5.58594 95.2439 5.78622C94.8731 5.98224 94.5791 6.25497 94.3618 6.6044C94.1487 6.94957 94.0422 7.34375 94.0422 7.78693V14H92.5337ZM99.7709 14V4.18182H101.279V14H99.7709ZM100.538 2.54545C100.244 2.54545 99.9904 2.44531 99.7773 2.24503C99.5685 2.04474 99.4641 1.80398 99.4641 1.52273C99.4641 1.24148 99.5685 1.00071 99.7773 0.800426C99.9904 0.600142 100.244 0.5 100.538 0.5C100.832 0.5 101.083 0.600142 101.292 0.800426C101.505 1.00071 101.612 1.24148 101.612 1.52273C101.612 1.80398 101.505 2.04474 101.292 2.24503C101.083 2.44531 100.832 2.54545 100.538 2.54545ZM108.699 14.2045C107.753 14.2045 106.937 13.9957 106.251 13.5781C105.569 13.1562 105.043 12.5682 104.672 11.8139C104.305 11.0554 104.122 10.1733 104.122 9.16761C104.122 8.16193 104.305 7.27557 104.672 6.50852C105.043 5.73722 105.558 5.13636 106.219 4.70597C106.884 4.27131 107.659 4.05398 108.545 4.05398C109.057 4.05398 109.562 4.1392 110.06 4.30966C110.559 4.48011 111.013 4.7571 111.422 5.14062C111.831 5.51989 112.157 6.02273 112.4 6.64915C112.643 7.27557 112.764 8.04687 112.764 8.96307V9.60227H105.196V8.2983H111.23C111.23 7.74432 111.119 7.25 110.898 6.81534C110.68 6.38068 110.369 6.03764 109.965 5.78622C109.564 5.5348 109.091 5.40909 108.545 5.40909C107.945 5.40909 107.425 5.55824 106.986 5.85653C106.551 6.15057 106.217 6.53409 105.982 7.0071C105.748 7.48011 105.631 7.98722 105.631 8.52841V9.39773C105.631 10.1392 105.759 10.7678 106.014 11.2834C106.274 11.7947 106.634 12.1847 107.094 12.4531C107.555 12.7173 108.09 12.8494 108.699 12.8494C109.095 12.8494 109.453 12.794 109.773 12.6832C110.097 12.5682 110.376 12.3977 110.61 12.1719C110.844 11.9418 111.026 11.6562 111.153 11.3153L112.611 11.7244C112.457 12.2188 112.2 12.6534 111.837 13.0284C111.475 13.3991 111.028 13.6889 110.495 13.8977C109.962 14.1023 109.364 14.2045 108.699 14.2045ZM122.554 6.38068L121.198 6.7642C121.113 6.53835 120.987 6.31889 120.821 6.10582C120.659 5.88849 120.438 5.70952 120.156 5.56889C119.875 5.42827 119.515 5.35795 119.076 5.35795C118.475 5.35795 117.975 5.49645 117.574 5.77344C117.178 6.04616 116.98 6.39347 116.98 6.81534C116.98 7.19034 117.116 7.48651 117.389 7.70384C117.661 7.92116 118.088 8.10227 118.667 8.24716L120.125 8.60511C121.002 8.81818 121.656 9.14418 122.087 9.5831C122.517 10.0178 122.732 10.5781 122.732 11.2642C122.732 11.8267 122.571 12.3295 122.247 12.7727C121.927 13.2159 121.48 13.5653 120.904 13.821C120.329 14.0767 119.66 14.2045 118.897 14.2045C117.896 14.2045 117.067 13.9872 116.411 13.5526C115.755 13.1179 115.339 12.483 115.164 11.6477L116.596 11.2898C116.732 11.8182 116.99 12.2145 117.37 12.4787C117.753 12.7429 118.254 12.875 118.872 12.875C119.575 12.875 120.133 12.7259 120.546 12.4276C120.964 12.125 121.173 11.7628 121.173 11.3409C121.173 11 121.054 10.7145 120.815 10.4844C120.576 10.25 120.21 10.0753 119.715 9.96023L118.079 9.5767C117.18 9.36364 116.519 9.03338 116.098 8.58594C115.68 8.13423 115.471 7.5696 115.471 6.89205C115.471 6.33807 115.627 5.84801 115.938 5.42188C116.253 4.99574 116.681 4.66122 117.223 4.41832C117.768 4.17543 118.386 4.05398 119.076 4.05398C120.048 4.05398 120.811 4.26705 121.365 4.69318C121.923 5.11932 122.319 5.68182 122.554 6.38068ZM126.643 14.1023C126.327 14.1023 126.057 13.9893 125.831 13.7635C125.605 13.5376 125.492 13.267 125.492 12.9517C125.492 12.6364 125.605 12.3658 125.831 12.1399C126.057 11.9141 126.327 11.8011 126.643 11.8011C126.958 11.8011 127.229 11.9141 127.454 12.1399C127.68 12.3658 127.793 12.6364 127.793 12.9517C127.793 13.1605 127.74 13.3523 127.633 13.527C127.531 13.7017 127.393 13.8423 127.218 13.9489C127.048 14.0511 126.856 14.1023 126.643 14.1023Z" fill="#ED1A1A"/>
</svg>
